<?xml version="1.0" encoding="utf-8" standalone="no"?>
<!DOCTYPE svg PUBLIC "-//W3C//DTD SVG 1.1//EN"
  "http://www.w3.org/Graphics/SVG/1.1/DTD/svg11.dtd">
<svg xmlns:xlink="http://www.w3.org/1999/xlink" width="504pt" height="504pt" viewBox="0 0 504 504" xmlns="http://www.w3.org/2000/svg" version="1.1">
 <metadata>
  <rdf:RDF xmlns:dc="http://purl.org/dc/elements/1.1/" xmlns:cc="http://creativecommons.org/ns#" xmlns:rdf="http://www.w3.org/1999/02/22-rdf-syntax-ns#">
   <cc:Work>
    <dc:type rdf:resource="http://purl.org/dc/dcmitype/StillImage"/>
    <dc:date>2026-09-20T20:08:57.467794</dc:date>
    <dc:format>image/svg+xml</dc:format>
    <dc:creator>
     <cc:Agent>
      <dc:title>Matplotlib v3.10.8, https://matplotlib.org/</dc:title>
     </cc:Agent>
    </dc:creator>
   </cc:Work>
  </rdf:RDF>
 </metadata>
 <defs>
  <style type="text/css">*{stroke-linejoin: round; stroke-linecap: butt}</style>
 </defs>
 <g id="figure_1">
  <g id="patch_1">
   <path d="M 0 504 
L 504 504 
L 504 0 
L 0 0 
z
" style="fill: #ffffff"/>
  </g>
  <g id="axes_1">
   <g id="patch_2">
    <path d="M 43.29 130.78 
L 238.348187 130.78 
L 238.348187 37.084 
L 43.29 37.084 
z
" style="fill: #ffffff"/>
   </g>
   <g id="matplotlib.axis_1">
    <g id="xtick_1">
     <g id="line2d_1">
      <defs>
       <path id="mbab8b58d4b" d="M 0 0 
L 0 3.5 
" style="stroke: #000000; stroke-width: 0.8"/>
      </defs>
      <g>
       <use xlink:href="#mbab8b58d4b" x="70.964966" y="130.78" style="stroke: #000000; stroke-width: 0.8"/>
      </g>
     </g>
     <g id="text_1">
      <!-- 10.8 -->
      <g transform="translate(60.945435 144.618594) scale(0.09 -0.09)">
       <defs>
        <path id="DejaVuSans-31" d="M 794 531 
L 1825 531 
L 1825 4091 
L 703 3866 
L 703 4441 
L 1819 4666 
L 2450 4666 
L 2450 531 
L 3481 531 
L 3481 0 
L 794 0 
L 794 531 
z
" transform="scale(0.015625)"/>
        <path id="DejaVuSans-30" d="M 2034 4250 
Q 1547 4250 1301 3770 
Q 1056 3291 1056 2328 
Q 1056 1369 1301 889 
Q 1547 409 2034 409 
Q 2525 409 2770 889 
Q 3016 1369 3016 2328 
Q 3016 3291 2770 3770 
Q 2525 4250 2034 4250 
z
M 2034 4750 
Q 2819 4750 3233 4129 
Q 3647 3509 3647 2328 
Q 3647 1150 3233 529 
Q 2819 -91 2034 -91 
Q 1250 -91 836 529 
Q 422 1150 422 2328 
Q 422 3509 836 4129 
Q 1250 4750 2034 4750 
z
" transform="scale(0.015625)"/>
        <path id="DejaVuSans-2e" d="M 684 794 
L 1344 794 
L 1344 0 
L 684 0 
L 684 794 
z
" transform="scale(0.015625)"/>
        <path id="DejaVuSans-38" d="M 2034 2216 
Q 1584 2216 1326 1975 
Q 1069 1734 1069 1313 
Q 1069 891 1326 650 
Q 1584 409 2034 409 
Q 2484 409 2743 651 
Q 3003 894 3003 1313 
Q 3003 1734 2745 1975 
Q 2488 2216 2034 2216 
z
M 1403 2484 
Q 997 2584 770 2862 
Q 544 3141 544 3541 
Q 544 4100 942 4425 
Q 1341 4750 2034 4750 
Q 2731 4750 3128 4425 
Q 3525 4100 3525 3541 
Q 3525 3141 3298 2862 
Q 3072 2584 2669 2484 
Q 3125 2378 3379 2068 
Q 3634 1759 3634 1313 
Q 3634 634 3220 271 
Q 2806 -91 2034 -91 
Q 1263 -91 848 271 
Q 434 634 434 1313 
Q 434 1759 690 2068 
Q 947 2378 1403 2484 
z
M 1172 3481 
Q 1172 3119 1398 2916 
Q 1625 2713 2034 2713 
Q 2441 2713 2670 2916 
Q 2900 3119 2900 3481 
Q 2900 3844 2670 4047 
Q 2441 4250 2034 4250 
Q 1625 4250 1398 4047 
Q 1172 3844 1172 3481 
z
" transform="scale(0.015625)"/>
       </defs>
       <use xlink:href="#DejaVuSans-31"/>
       <use xlink:href="#DejaVuSans-30" transform="translate(63.623047 0)"/>
       <use xlink:href="#DejaVuSans-2e" transform="translate(127.246094 0)"/>
       <use xlink:href="#DejaVuSans-38" transform="translate(159.033203 0)"/>
      </g>
     </g>
    </g>
    <g id="xtick_2">
     <g id="line2d_2">
      <g>
       <use xlink:href="#mbab8b58d4b" x="99.274811" y="130.78" style="stroke: #000000; stroke-width: 0.8"/>
      </g>
     </g>
     <g id="text_2">
      <!-- 11.0 -->
      <g transform="translate(89.25528 144.618594) scale(0.09 -0.09)">
       <use xlink:href="#DejaVuSans-31"/>
       <use xlink:href="#DejaVuSans-31" transform="translate(63.623047 0)"/>
       <use xlink:href="#DejaVuSans-2e" transform="translate(127.246094 0)"/>
       <use xlink:href="#DejaVuSans-30" transform="translate(159.033203 0)"/>
      </g>
     </g>
    </g>
    <g id="xtick_3">
     <g id="line2d_3">
      <g>
       <use xlink:href="#mbab8b58d4b" x="127.584656" y="130.78" style="stroke: #000000; stroke-width: 0.8"/>
      </g>
     </g>
     <g id="text_3">
      <!-- 11.2 -->
      <g transform="translate(117.565124 144.618594) scale(0.09 -0.09)">
       <defs>
        <path id="DejaVuSans-32" d="M 1228 531 
L 3431 531 
L 3431 0 
L 469 0 
L 469 531 
Q 828 903 1448 1529 
Q 2069 2156 2228 2338 
Q 2531 2678 2651 2914 
Q 2772 3150 2772 3378 
Q 2772 3750 2511 3984 
Q 2250 4219 1831 4219 
Q 1534 4219 1204 4116 
Q 875 4013 500 3803 
L 500 4441 
Q 881 4594 1212 4672 
Q 1544 4750 1819 4750 
Q 2544 4750 2975 4387 
Q 3406 4025 3406 3419 
Q 3406 3131 3298 2873 
Q 3191 2616 2906 2266 
Q 2828 2175 2409 1742 
Q 1991 1309 1228 531 
z
" transform="scale(0.015625)"/>
       </defs>
       <use xlink:href="#DejaVuSans-31"/>
       <use xlink:href="#DejaVuSans-31" transform="translate(63.623047 0)"/>
       <use xlink:href="#DejaVuSans-2e" transform="translate(127.246094 0)"/>
       <use xlink:href="#DejaVuSans-32" transform="translate(159.033203 0)"/>
      </g>
     </g>
    </g>
    <g id="xtick_4">
     <g id="line2d_4">
      <g>
       <use xlink:href="#mbab8b58d4b" x="155.8945" y="130.78" style="stroke: #000000; stroke-width: 0.8"/>
      </g>
     </g>
     <g id="text_4">
      <!-- 11.4 -->
      <g transform="translate(145.874969 144.618594) scale(0.09 -0.09)">
       <defs>
        <path id="DejaVuSans-34" d="M 2419 4116 
L 825 1625 
L 2419 1625 
L 2419 4116 
z
M 2253 4666 
L 3047 4666 
L 3047 1625 
L 3713 1625 
L 3713 1100 
L 3047 1100 
L 3047 0 
L 2419 0 
L 2419 1100 
L 313 1100 
L 313 1709 
L 2253 4666 
z
" transform="scale(0.015625)"/>
       </defs>
       <use xlink:href="#DejaVuSans-31"/>
       <use xlink:href="#DejaVuSans-31" transform="translate(63.623047 0)"/>
       <use xlink:href="#DejaVuSans-2e" transform="translate(127.246094 0)"/>
       <use xlink:href="#DejaVuSans-34" transform="translate(159.033203 0)"/>
      </g>
     </g>
    </g>
    <g id="xtick_5">
     <g id="line2d_5">
      <g>
       <use xlink:href="#mbab8b58d4b" x="184.204345" y="130.78" style="stroke: #000000; stroke-width: 0.8"/>
      </g>
     </g>
     <g id="text_5">
      <!-- 11.6 -->
      <g transform="translate(174.184814 144.618594) scale(0.09 -0.09)">
       <defs>
        <path id="DejaVuSans-36" d="M 2113 2584 
Q 1688 2584 1439 2293 
Q 1191 2003 1191 1497 
Q 1191 994 1439 701 
Q 1688 409 2113 409 
Q 2538 409 2786 701 
Q 3034 994 3034 1497 
Q 3034 2003 2786 2293 
Q 2538 2584 2113 2584 
z
M 3366 4563 
L 3366 3988 
Q 3128 4100 2886 4159 
Q 2644 4219 2406 4219 
Q 1781 4219 1451 3797 
Q 1122 3375 1075 2522 
Q 1259 2794 1537 2939 
Q 1816 3084 2150 3084 
Q 2853 3084 3261 2657 
Q 3669 2231 3669 1497 
Q 3669 778 3244 343 
Q 2819 -91 2113 -91 
Q 1303 -91 875 529 
Q 447 1150 447 2328 
Q 447 3434 972 4092 
Q 1497 4750 2381 4750 
Q 2619 4750 2861 4703 
Q 3103 4656 3366 4563 
z
" transform="scale(0.015625)"/>
       </defs>
       <use xlink:href="#DejaVuSans-31"/>
       <use xlink:href="#DejaVuSans-31" transform="translate(63.623047 0)"/>
       <use xlink:href="#DejaVuSans-2e" transform="translate(127.246094 0)"/>
       <use xlink:href="#DejaVuSans-36" transform="translate(159.033203 0)"/>
      </g>
     </g>
    </g>
    <g id="xtick_6">
     <g id="line2d_6">
      <g>
       <use xlink:href="#mbab8b58d4b" x="212.51419" y="130.78" style="stroke: #000000; stroke-width: 0.8"/>
      </g>
     </g>
     <g id="text_6">
      <!-- 11.8 -->
      <g transform="translate(202.494659 144.618594) scale(0.09 -0.09)">
       <use xlink:href="#DejaVuSans-31"/>
       <use xlink:href="#DejaVuSans-31" transform="translate(63.623047 0)"/>
       <use xlink:href="#DejaVuSans-2e" transform="translate(127.246094 0)"/>
       <use xlink:href="#DejaVuSans-38" transform="translate(159.033203 0)"/>
      </g>
     </g>
    </g>
    <g id="text_7">
     <!-- Threshold -->
     <g transform="translate(118.64464 157.328906) scale(0.09 -0.09)">
      <defs>
       <path id="DejaVuSans-54" d="M -19 4666 
L 3928 4666 
L 3928 4134 
L 2272 4134 
L 2272 0 
L 1638 0 
L 1638 4134 
L -19 4134 
L -19 4666 
z
" transform="scale(0.015625)"/>
       <path id="DejaVuSans-68" d="M 3513 2113 
L 3513 0 
L 2938 0 
L 2938 2094 
Q 2938 2591 2744 2837 
Q 2550 3084 2163 3084 
Q 1697 3084 1428 2787 
Q 1159 2491 1159 1978 
L 1159 0 
L 581 0 
L 581 4863 
L 1159 4863 
L 1159 2956 
Q 1366 3272 1645 3428 
Q 1925 3584 2291 3584 
Q 2894 3584 3203 3211 
Q 3513 2838 3513 2113 
z
" transform="scale(0.015625)"/>
       <path id="DejaVuSans-72" d="M 2631 2963 
Q 2534 3019 2420 3045 
Q 2306 3072 2169 3072 
Q 1681 3072 1420 2755 
Q 1159 2438 1159 1844 
L 1159 0 
L 581 0 
L 581 3500 
L 1159 3500 
L 1159 2956 
Q 1341 3275 1631 3429 
Q 1922 3584 2338 3584 
Q 2397 3584 2469 3576 
Q 2541 3569 2628 3553 
L 2631 2963 
z
" transform="scale(0.015625)"/>
       <path id="DejaVuSans-65" d="M 3597 1894 
L 3597 1613 
L 953 1613 
Q 991 1019 1311 708 
Q 1631 397 2203 397 
Q 2534 397 2845 478 
Q 3156 559 3463 722 
L 3463 178 
Q 3153 47 2828 -22 
Q 2503 -91 2169 -91 
Q 1331 -91 842 396 
Q 353 884 353 1716 
Q 353 2575 817 3079 
Q 1281 3584 2069 3584 
Q 2775 3584 3186 3129 
Q 3597 2675 3597 1894 
z
M 3022 2063 
Q 3016 2534 2758 2815 
Q 2500 3097 2075 3097 
Q 1594 3097 1305 2825 
Q 1016 2553 972 2059 
L 3022 2063 
z
" transform="scale(0.015625)"/>
       <path id="DejaVuSans-73" d="M 2834 3397 
L 2834 2853 
Q 2591 2978 2328 3040 
Q 2066 3103 1784 3103 
Q 1356 3103 1142 2972 
Q 928 2841 928 2578 
Q 928 2378 1081 2264 
Q 1234 2150 1697 2047 
L 1894 2003 
Q 2506 1872 2764 1633 
Q 3022 1394 3022 966 
Q 3022 478 2636 193 
Q 2250 -91 1575 -91 
Q 1294 -91 989 -36 
Q 684 19 347 128 
L 347 722 
Q 666 556 975 473 
Q 1284 391 1588 391 
Q 1994 391 2212 530 
Q 2431 669 2431 922 
Q 2431 1156 2273 1281 
Q 2116 1406 1581 1522 
L 1381 1569 
Q 847 1681 609 1914 
Q 372 2147 372 2553 
Q 372 3047 722 3315 
Q 1072 3584 1716 3584 
Q 2034 3584 2315 3537 
Q 2597 3491 2834 3397 
z
" transform="scale(0.015625)"/>
       <path id="DejaVuSans-6f" d="M 1959 3097 
Q 1497 3097 1228 2736 
Q 959 2375 959 1747 
Q 959 1119 1226 758 
Q 1494 397 1959 397 
Q 2419 397 2687 759 
Q 2956 1122 2956 1747 
Q 2956 2369 2687 2733 
Q 2419 3097 1959 3097 
z
M 1959 3584 
Q 2709 3584 3137 3096 
Q 3566 2609 3566 1747 
Q 3566 888 3137 398 
Q 2709 -91 1959 -91 
Q 1206 -91 779 398 
Q 353 888 353 1747 
Q 353 2609 779 3096 
Q 1206 3584 1959 3584 
z
" transform="scale(0.015625)"/>
       <path id="DejaVuSans-6c" d="M 603 4863 
L 1178 4863 
L 1178 0 
L 603 0 
L 603 4863 
z
" transform="scale(0.015625)"/>
       <path id="DejaVuSans-64" d="M 2906 2969 
L 2906 4863 
L 3481 4863 
L 3481 0 
L 2906 0 
L 2906 525 
Q 2725 213 2448 61 
Q 2172 -91 1784 -91 
Q 1150 -91 751 415 
Q 353 922 353 1747 
Q 353 2572 751 3078 
Q 1150 3584 1784 3584 
Q 2172 3584 2448 3432 
Q 2725 3281 2906 2969 
z
M 947 1747 
Q 947 1113 1208 752 
Q 1469 391 1925 391 
Q 2381 391 2643 752 
Q 2906 1113 2906 1747 
Q 2906 2381 2643 2742 
Q 2381 3103 1925 3103 
Q 1469 3103 1208 2742 
Q 947 2381 947 1747 
z
" transform="scale(0.015625)"/>
      </defs>
      <use xlink:href="#DejaVuSans-54"/>
      <use xlink:href="#DejaVuSans-68" transform="translate(61.083984 0)"/>
      <use xlink:href="#DejaVuSans-72" transform="translate(124.462891 0)"/>
      <use xlink:href="#DejaVuSans-65" transform="translate(163.326172 0)"/>
      <use xlink:href="#DejaVuSans-73" transform="translate(224.849609 0)"/>
      <use xlink:href="#DejaVuSans-68" transform="translate(276.949219 0)"/>
      <use xlink:href="#DejaVuSans-6f" transform="translate(340.328125 0)"/>
      <use xlink:href="#DejaVuSans-6c" transform="translate(401.509766 0)"/>
      <use xlink:href="#DejaVuSans-64" transform="translate(429.292969 0)"/>
     </g>
    </g>
   </g>
   <g id="matplotlib.axis_2">
    <g id="ytick_1">
     <g id="line2d_7">
      <defs>
       <path id="m837bffd6a3" d="M 0 0 
L -3.5 0 
" style="stroke: #000000; stroke-width: 0.8"/>
      </defs>
      <g>
       <use xlink:href="#m837bffd6a3" x="43.29" y="126.521091" style="stroke: #000000; stroke-width: 0.8"/>
      </g>
     </g>
     <g id="text_8">
      <!-- 0 -->
      <g transform="translate(30.56375 129.940388) scale(0.09 -0.09)">
       <use xlink:href="#DejaVuSans-30"/>
      </g>
     </g>
    </g>
    <g id="ytick_2">
     <g id="line2d_8">
      <g>
       <use xlink:href="#m837bffd6a3" x="43.29" y="99.464074" style="stroke: #000000; stroke-width: 0.8"/>
      </g>
     </g>
     <g id="text_9">
      <!-- 10 -->
      <g transform="translate(24.8375 102.883371) scale(0.09 -0.09)">
       <use xlink:href="#DejaVuSans-31"/>
       <use xlink:href="#DejaVuSans-30" transform="translate(63.623047 0)"/>
      </g>
     </g>
    </g>
    <g id="ytick_3">
     <g id="line2d_9">
      <g>
       <use xlink:href="#m837bffd6a3" x="43.29" y="72.407057" style="stroke: #000000; stroke-width: 0.8"/>
      </g>
     </g>
     <g id="text_10">
      <!-- 20 -->
      <g transform="translate(24.8375 75.826354) scale(0.09 -0.09)">
       <use xlink:href="#DejaVuSans-32"/>
       <use xlink:href="#DejaVuSans-30" transform="translate(63.623047 0)"/>
      </g>
     </g>
    </g>
    <g id="ytick_4">
     <g id="line2d_10">
      <g>
       <use xlink:href="#m837bffd6a3" x="43.29" y="45.35004" style="stroke: #000000; stroke-width: 0.8"/>
      </g>
     </g>
     <g id="text_11">
      <!-- 30 -->
      <g transform="translate(24.8375 48.769337) scale(0.09 -0.09)">
       <defs>
        <path id="DejaVuSans-33" d="M 2597 2516 
Q 3050 2419 3304 2112 
Q 3559 1806 3559 1356 
Q 3559 666 3084 287 
Q 2609 -91 1734 -91 
Q 1441 -91 1130 -33 
Q 819 25 488 141 
L 488 750 
Q 750 597 1062 519 
Q 1375 441 1716 441 
Q 2309 441 2620 675 
Q 2931 909 2931 1356 
Q 2931 1769 2642 2001 
Q 2353 2234 1838 2234 
L 1294 2234 
L 1294 2753 
L 1863 2753 
Q 2328 2753 2575 2939 
Q 2822 3125 2822 3475 
Q 2822 3834 2567 4026 
Q 2313 4219 1838 4219 
Q 1578 4219 1281 4162 
Q 984 4106 628 3988 
L 628 4550 
Q 988 4650 1302 4700 
Q 1616 4750 1894 4750 
Q 2613 4750 3031 4423 
Q 3450 4097 3450 3541 
Q 3450 3153 3228 2886 
Q 3006 2619 2597 2516 
z
" transform="scale(0.015625)"/>
       </defs>
       <use xlink:href="#DejaVuSans-33"/>
       <use xlink:href="#DejaVuSans-30" transform="translate(63.623047 0)"/>
      </g>
     </g>
    </g>
    <g id="text_12">
     <!-- LR -->
     <g transform="translate(18.965781 89.566141) rotate(-90) scale(0.09 -0.09)">
      <defs>
       <path id="DejaVuSans-4c" d="M 628 4666 
L 1259 4666 
L 1259 531 
L 3531 531 
L 3531 0 
L 628 0 
L 628 4666 
z
" transform="scale(0.015625)"/>
       <path id="DejaVuSans-52" d="M 2841 2188 
Q 3044 2119 3236 1894 
Q 3428 1669 3622 1275 
L 4263 0 
L 3584 0 
L 2988 1197 
Q 2756 1666 2539 1819 
Q 2322 1972 1947 1972 
L 1259 1972 
L 1259 0 
L 628 0 
L 628 4666 
L 2053 4666 
Q 2853 4666 3247 4331 
Q 3641 3997 3641 3322 
Q 3641 2881 3436 2590 
Q 3231 2300 2841 2188 
z
M 1259 4147 
L 1259 2491 
L 2053 2491 
Q 2509 2491 2742 2702 
Q 2975 2913 2975 3322 
Q 2975 3731 2742 3939 
Q 2509 4147 2053 4147 
L 1259 4147 
z
" transform="scale(0.015625)"/>
      </defs>
      <use xlink:href="#DejaVuSans-4c"/>
      <use xlink:href="#DejaVuSans-52" transform="translate(55.712891 0)"/>
     </g>
    </g>
   </g>
   <g id="line2d_11">
    <path d="M 52.156281 55.634719 
L 54.191603 41.342909 
L 57.273076 42.243837 
L 59.199622 42.947289 
L 61.373786 53.406381 
L 63.686248 60.001881 
L 65.584701 86.310847 
L 68.039696 86.888987 
L 70.971456 72.908523 
L 73.713216 82.976613 
L 75.893301 83.788799 
L 78.444509 85.104259 
L 82.213931 101.265765 
L 84.924202 100.66743 
L 86.231382 103.216369 
L 89.420707 119.06764 
L 93.507099 126.521091 
L 98.289219 123.561879 
L 101.495392 94.353776 
L 105.36467 87.02896 
L 109.126585 84.857257 
L 111.256531 89.673217 
L 115.661063 89.177681 
L 121.171886 90.791659 
L 123.342317 91.270785 
L 125.112055 93.81005 
L 127.325694 97.796976 
L 129.044477 99.657785 
L 130.680948 102.860222 
L 133.034473 103.643267 
L 136.844618 104.371823 
L 139.23479 103.926621 
L 143.291357 103.760811 
L 147.096274 106.177096 
L 150.989292 112.202004 
L 158.288529 116.429916 
L 163.781816 114.8897 
L 168.396513 111.008836 
L 174.741162 120.376502 
L 177.835486 113.856275 
L 181.762614 104.314509 
L 184.656178 94.412776 
L 186.83356 87.523585 
L 189.440585 87.043862 
L 190.937424 77.439508 
L 193.29577 80.120202 
L 194.605625 72.450449 
L 197.774003 69.669922 
L 200.010271 68.88362 
L 203.540925 69.53751 
L 206.748093 74.881122 
L 209.961447 86.061703 
L 213.136941 85.823845 
L 215.499078 76.708285 
L 217.543899 71.339475 
L 220.085328 66.584833 
L 222.127309 66.001534 
L 225.917359 60.66378 
L 228.106508 57.496599 
L 229.481906 57.367398 
" clip-path="url(#p6ac99358ca)" style="fill: none; stroke: #1f4e79; stroke-width: 1.5; stroke-linecap: square"/>
   </g>
   <g id="patch_3">
    <path d="M 43.29 130.78 
L 43.29 37.084 
" style="fill: none; stroke: #000000; stroke-width: 0.8; stroke-linejoin: miter; stroke-linecap: square"/>
   </g>
   <g id="patch_4">
    <path d="M 238.348187 130.78 
L 238.348187 37.084 
" style="fill: none; stroke: #000000; stroke-width: 0.8; stroke-linejoin: miter; stroke-linecap: square"/>
   </g>
   <g id="patch_5">
    <path d="M 43.29 130.78 
L 238.348187 130.78 
" style="fill: none; stroke: #000000; stroke-width: 0.8; stroke-linejoin: miter; stroke-linecap: square"/>
   </g>
   <g id="patch_6">
    <path d="M 43.29 37.084 
L 238.348187 37.084 
" style="fill: none; stroke: #000000; stroke-width: 0.8; stroke-linejoin: miter; stroke-linecap: square"/>
   </g>
   <g id="text_13">
    <!-- Physical rep. -->
    <g transform="translate(109.108156 19.886187) scale(0.1 -0.1)">
     <defs>
      <path id="DejaVuSans-50" d="M 1259 4147 
L 1259 2394 
L 2053 2394 
Q 2494 2394 2734 2622 
Q 2975 2850 2975 3272 
Q 2975 3691 2734 3919 
Q 2494 4147 2053 4147 
L 1259 4147 
z
M 628 4666 
L 2053 4666 
Q 2838 4666 3239 4311 
Q 3641 3956 3641 3272 
Q 3641 2581 3239 2228 
Q 2838 1875 2053 1875 
L 1259 1875 
L 1259 0 
L 628 0 
L 628 4666 
z
" transform="scale(0.015625)"/>
      <path id="DejaVuSans-79" d="M 2059 -325 
Q 1816 -950 1584 -1140 
Q 1353 -1331 966 -1331 
L 506 -1331 
L 506 -850 
L 844 -850 
Q 1081 -850 1212 -737 
Q 1344 -625 1503 -206 
L 1606 56 
L 191 3500 
L 800 3500 
L 1894 763 
L 2988 3500 
L 3597 3500 
L 2059 -325 
z
" transform="scale(0.015625)"/>
      <path id="DejaVuSans-69" d="M 603 3500 
L 1178 3500 
L 1178 0 
L 603 0 
L 603 3500 
z
M 603 4863 
L 1178 4863 
L 1178 4134 
L 603 4134 
L 603 4863 
z
" transform="scale(0.015625)"/>
      <path id="DejaVuSans-63" d="M 3122 3366 
L 3122 2828 
Q 2878 2963 2633 3030 
Q 2388 3097 2138 3097 
Q 1578 3097 1268 2742 
Q 959 2388 959 1747 
Q 959 1106 1268 751 
Q 1578 397 2138 397 
Q 2388 397 2633 464 
Q 2878 531 3122 666 
L 3122 134 
Q 2881 22 2623 -34 
Q 2366 -91 2075 -91 
Q 1284 -91 818 406 
Q 353 903 353 1747 
Q 353 2603 823 3093 
Q 1294 3584 2113 3584 
Q 2378 3584 2631 3529 
Q 2884 3475 3122 3366 
z
" transform="scale(0.015625)"/>
      <path id="DejaVuSans-61" d="M 2194 1759 
Q 1497 1759 1228 1600 
Q 959 1441 959 1056 
Q 959 750 1161 570 
Q 1363 391 1709 391 
Q 2188 391 2477 730 
Q 2766 1069 2766 1631 
L 2766 1759 
L 2194 1759 
z
M 3341 1997 
L 3341 0 
L 2766 0 
L 2766 531 
Q 2569 213 2275 61 
Q 1981 -91 1556 -91 
Q 1019 -91 701 211 
Q 384 513 384 1019 
Q 384 1609 779 1909 
Q 1175 2209 1959 2209 
L 2766 2209 
L 2766 2266 
Q 2766 2663 2505 2880 
Q 2244 3097 1772 3097 
Q 1472 3097 1187 3025 
Q 903 2953 641 2809 
L 641 3341 
Q 956 3463 1253 3523 
Q 1550 3584 1831 3584 
Q 2591 3584 2966 3190 
Q 3341 2797 3341 1997 
z
" transform="scale(0.015625)"/>
      <path id="DejaVuSans-20" transform="scale(0.015625)"/>
      <path id="DejaVuSans-70" d="M 1159 525 
L 1159 -1331 
L 581 -1331 
L 581 3500 
L 1159 3500 
L 1159 2969 
Q 1341 3281 1617 3432 
Q 1894 3584 2278 3584 
Q 2916 3584 3314 3078 
Q 3713 2572 3713 1747 
Q 3713 922 3314 415 
Q 2916 -91 2278 -91 
Q 1894 -91 1617 61 
Q 1341 213 1159 525 
z
M 3116 1747 
Q 3116 2381 2855 2742 
Q 2594 3103 2138 3103 
Q 1681 3103 1420 2742 
Q 1159 2381 1159 1747 
Q 1159 1113 1420 752 
Q 1681 391 2138 391 
Q 2594 391 2855 752 
Q 3116 1113 3116 1747 
z
" transform="scale(0.015625)"/>
     </defs>
     <use xlink:href="#DejaVuSans-50"/>
     <use xlink:href="#DejaVuSans-68" transform="translate(60.302734 0)"/>
     <use xlink:href="#DejaVuSans-79" transform="translate(123.681641 0)"/>
     <use xlink:href="#DejaVuSans-73" transform="translate(182.861328 0)"/>
     <use xlink:href="#DejaVuSans-69" transform="translate(234.960938 0)"/>
     <use xlink:href="#DejaVuSans-63" transform="translate(262.744141 0)"/>
     <use xlink:href="#DejaVuSans-61" transform="translate(317.724609 0)"/>
     <use xlink:href="#DejaVuSans-6c" transform="translate(379.003906 0)"/>
     <use xlink:href="#DejaVuSans-20" transform="translate(406.787109 0)"/>
     <use xlink:href="#DejaVuSans-72" transform="translate(438.574219 0)"/>
     <use xlink:href="#DejaVuSans-65" transform="translate(477.4375 0)"/>
     <use xlink:href="#DejaVuSans-70" transform="translate(538.960938 0)"/>
     <use xlink:href="#DejaVuSans-2e" transform="translate(602.4375 0)"/>
    </g>
    <!-- Threshold in K/L -->
    <g transform="translate(100.695656 31.084) scale(0.1 -0.1)">
     <defs>
      <path id="DejaVuSans-6e" d="M 3513 2113 
L 3513 0 
L 2938 0 
L 2938 2094 
Q 2938 2591 2744 2837 
Q 2550 3084 2163 3084 
Q 1697 3084 1428 2787 
Q 1159 2491 1159 1978 
L 1159 0 
L 581 0 
L 581 3500 
L 1159 3500 
L 1159 2956 
Q 1366 3272 1645 3428 
Q 1925 3584 2291 3584 
Q 2894 3584 3203 3211 
Q 3513 2838 3513 2113 
z
" transform="scale(0.015625)"/>
      <path id="DejaVuSans-4b" d="M 628 4666 
L 1259 4666 
L 1259 2694 
L 3353 4666 
L 4166 4666 
L 1850 2491 
L 4331 0 
L 3500 0 
L 1259 2247 
L 1259 0 
L 628 0 
L 628 4666 
z
" transform="scale(0.015625)"/>
      <path id="DejaVuSans-2f" d="M 1625 4666 
L 2156 4666 
L 531 -594 
L 0 -594 
L 1625 4666 
z
" transform="scale(0.015625)"/>
     </defs>
     <use xlink:href="#DejaVuSans-54"/>
     <use xlink:href="#DejaVuSans-68" transform="translate(61.083984 0)"/>
     <use xlink:href="#DejaVuSans-72" transform="translate(124.462891 0)"/>
     <use xlink:href="#DejaVuSans-65" transform="translate(163.326172 0)"/>
     <use xlink:href="#DejaVuSans-73" transform="translate(224.849609 0)"/>
     <use xlink:href="#DejaVuSans-68" transform="translate(276.949219 0)"/>
     <use xlink:href="#DejaVuSans-6f" transform="translate(340.328125 0)"/>
     <use xlink:href="#DejaVuSans-6c" transform="translate(401.509766 0)"/>
     <use xlink:href="#DejaVuSans-64" transform="translate(429.292969 0)"/>
     <use xlink:href="#DejaVuSans-20" transform="translate(492.769531 0)"/>
     <use xlink:href="#DejaVuSans-69" transform="translate(524.556641 0)"/>
     <use xlink:href="#DejaVuSans-6e" transform="translate(552.339844 0)"/>
     <use xlink:href="#DejaVuSans-20" transform="translate(615.71875 0)"/>
     <use xlink:href="#DejaVuSans-4b" transform="translate(647.505859 0)"/>
     <use xlink:href="#DejaVuSans-2f" transform="translate(713.082031 0)"/>
     <use xlink:href="#DejaVuSans-4c" transform="translate(746.773438 0)"/>
    </g>
   </g>
  </g>
  <g id="axes_2">
   <g id="patch_7">
    <path d="M 285.138187 130.78 
L 480.196374 130.78 
L 480.196374 37.084 
L 285.138187 37.084 
z
" style="fill: #ffffff"/>
   </g>
   <g id="matplotlib.axis_3">
    <g id="xtick_7">
     <g id="line2d_12">
      <g>
       <use xlink:href="#mbab8b58d4b" x="312.813153" y="130.78" style="stroke: #000000; stroke-width: 0.8"/>
      </g>
     </g>
     <g id="text_14">
      <!-- 10.8 -->
      <g transform="translate(302.793622 144.618594) scale(0.09 -0.09)">
       <use xlink:href="#DejaVuSans-31"/>
       <use xlink:href="#DejaVuSans-30" transform="translate(63.623047 0)"/>
       <use xlink:href="#DejaVuSans-2e" transform="translate(127.246094 0)"/>
       <use xlink:href="#DejaVuSans-38" transform="translate(159.033203 0)"/>
      </g>
     </g>
    </g>
    <g id="xtick_8">
     <g id="line2d_13">
      <g>
       <use xlink:href="#mbab8b58d4b" x="341.122998" y="130.78" style="stroke: #000000; stroke-width: 0.8"/>
      </g>
     </g>
     <g id="text_15">
      <!-- 11.0 -->
      <g transform="translate(331.103467 144.618594) scale(0.09 -0.09)">
       <use xlink:href="#DejaVuSans-31"/>
       <use xlink:href="#DejaVuSans-31" transform="translate(63.623047 0)"/>
       <use xlink:href="#DejaVuSans-2e" transform="translate(127.246094 0)"/>
       <use xlink:href="#DejaVuSans-30" transform="translate(159.033203 0)"/>
      </g>
     </g>
    </g>
    <g id="xtick_9">
     <g id="line2d_14">
      <g>
       <use xlink:href="#mbab8b58d4b" x="369.432843" y="130.78" style="stroke: #000000; stroke-width: 0.8"/>
      </g>
     </g>
     <g id="text_16">
      <!-- 11.2 -->
      <g transform="translate(359.413312 144.618594) scale(0.09 -0.09)">
       <use xlink:href="#DejaVuSans-31"/>
       <use xlink:href="#DejaVuSans-31" transform="translate(63.623047 0)"/>
       <use xlink:href="#DejaVuSans-2e" transform="translate(127.246094 0)"/>
       <use xlink:href="#DejaVuSans-32" transform="translate(159.033203 0)"/>
      </g>
     </g>
    </g>
    <g id="xtick_10">
     <g id="line2d_15">
      <g>
       <use xlink:href="#mbab8b58d4b" x="397.742688" y="130.78" style="stroke: #000000; stroke-width: 0.8"/>
      </g>
     </g>
     <g id="text_17">
      <!-- 11.4 -->
      <g transform="translate(387.723156 144.618594) scale(0.09 -0.09)">
       <use xlink:href="#DejaVuSans-31"/>
       <use xlink:href="#DejaVuSans-31" transform="translate(63.623047 0)"/>
       <use xlink:href="#DejaVuSans-2e" transform="translate(127.246094 0)"/>
       <use xlink:href="#DejaVuSans-34" transform="translate(159.033203 0)"/>
      </g>
     </g>
    </g>
    <g id="xtick_11">
     <g id="line2d_16">
      <g>
       <use xlink:href="#mbab8b58d4b" x="426.052532" y="130.78" style="stroke: #000000; stroke-width: 0.8"/>
      </g>
     </g>
     <g id="text_18">
      <!-- 11.6 -->
      <g transform="translate(416.033001 144.618594) scale(0.09 -0.09)">
       <use xlink:href="#DejaVuSans-31"/>
       <use xlink:href="#DejaVuSans-31" transform="translate(63.623047 0)"/>
       <use xlink:href="#DejaVuSans-2e" transform="translate(127.246094 0)"/>
       <use xlink:href="#DejaVuSans-36" transform="translate(159.033203 0)"/>
      </g>
     </g>
    </g>
    <g id="xtick_12">
     <g id="line2d_17">
      <g>
       <use xlink:href="#mbab8b58d4b" x="454.362377" y="130.78" style="stroke: #000000; stroke-width: 0.8"/>
      </g>
     </g>
     <g id="text_19">
      <!-- 11.8 -->
      <g transform="translate(444.342846 144.618594) scale(0.09 -0.09)">
       <use xlink:href="#DejaVuSans-31"/>
       <use xlink:href="#DejaVuSans-31" transform="translate(63.623047 0)"/>
       <use xlink:href="#DejaVuSans-2e" transform="translate(127.246094 0)"/>
       <use xlink:href="#DejaVuSans-38" transform="translate(159.033203 0)"/>
      </g>
     </g>
    </g>
    <g id="text_20">
     <!-- Threshold -->
     <g transform="translate(360.492828 157.328906) scale(0.09 -0.09)">
      <use xlink:href="#DejaVuSans-54"/>
      <use xlink:href="#DejaVuSans-68" transform="translate(61.083984 0)"/>
      <use xlink:href="#DejaVuSans-72" transform="translate(124.462891 0)"/>
      <use xlink:href="#DejaVuSans-65" transform="translate(163.326172 0)"/>
      <use xlink:href="#DejaVuSans-73" transform="translate(224.849609 0)"/>
      <use xlink:href="#DejaVuSans-68" transform="translate(276.949219 0)"/>
      <use xlink:href="#DejaVuSans-6f" transform="translate(340.328125 0)"/>
      <use xlink:href="#DejaVuSans-6c" transform="translate(401.509766 0)"/>
      <use xlink:href="#DejaVuSans-64" transform="translate(429.292969 0)"/>
     </g>
    </g>
   </g>
   <g id="matplotlib.axis_4">
    <g id="ytick_5">
     <g id="line2d_18">
      <g>
       <use xlink:href="#m837bffd6a3" x="285.138187" y="126.521091" style="stroke: #000000; stroke-width: 0.8"/>
      </g>
     </g>
     <g id="text_21">
      <!-- 0 -->
      <g transform="translate(272.411937 129.940388) scale(0.09 -0.09)">
       <use xlink:href="#DejaVuSans-30"/>
      </g>
     </g>
    </g>
    <g id="ytick_6">
     <g id="line2d_19">
      <g>
       <use xlink:href="#m837bffd6a3" x="285.138187" y="104.696369" style="stroke: #000000; stroke-width: 0.8"/>
      </g>
     </g>
     <g id="text_22">
      <!-- 10 -->
      <g transform="translate(266.685687 108.115666) scale(0.09 -0.09)">
       <use xlink:href="#DejaVuSans-31"/>
       <use xlink:href="#DejaVuSans-30" transform="translate(63.623047 0)"/>
      </g>
     </g>
    </g>
    <g id="ytick_7">
     <g id="line2d_20">
      <g>
       <use xlink:href="#m837bffd6a3" x="285.138187" y="82.871648" style="stroke: #000000; stroke-width: 0.8"/>
      </g>
     </g>
     <g id="text_23">
      <!-- 20 -->
      <g transform="translate(266.685687 86.290945) scale(0.09 -0.09)">
       <use xlink:href="#DejaVuSans-32"/>
       <use xlink:href="#DejaVuSans-30" transform="translate(63.623047 0)"/>
      </g>
     </g>
    </g>
    <g id="ytick_8">
     <g id="line2d_21">
      <g>
       <use xlink:href="#m837bffd6a3" x="285.138187" y="61.046926" style="stroke: #000000; stroke-width: 0.8"/>
      </g>
     </g>
     <g id="text_24">
      <!-- 30 -->
      <g transform="translate(266.685687 64.466223) scale(0.09 -0.09)">
       <use xlink:href="#DejaVuSans-33"/>
       <use xlink:href="#DejaVuSans-30" transform="translate(63.623047 0)"/>
      </g>
     </g>
    </g>
    <g id="ytick_9">
     <g id="line2d_22">
      <g>
       <use xlink:href="#m837bffd6a3" x="285.138187" y="39.222205" style="stroke: #000000; stroke-width: 0.8"/>
      </g>
     </g>
     <g id="text_25">
      <!-- 40 -->
      <g transform="translate(266.685687 42.641502) scale(0.09 -0.09)">
       <use xlink:href="#DejaVuSans-34"/>
       <use xlink:href="#DejaVuSans-30" transform="translate(63.623047 0)"/>
      </g>
     </g>
    </g>
    <g id="text_26">
     <!-- LR -->
     <g transform="translate(260.813968 89.566141) rotate(-90) scale(0.09 -0.09)">
      <use xlink:href="#DejaVuSans-4c"/>
      <use xlink:href="#DejaVuSans-52" transform="translate(55.712891 0)"/>
     </g>
    </g>
   </g>
   <g id="line2d_23">
    <path d="M 294.004468 41.342909 
L 296.03979 50.552612 
L 299.121263 58.209945 
L 301.047809 57.398336 
L 303.221973 77.867354 
L 305.534435 79.487899 
L 307.432888 102.574183 
L 309.887883 103.678392 
L 312.819643 89.927464 
L 315.561404 102.231318 
L 317.741488 97.050177 
L 320.292696 93.565052 
L 324.062119 102.011355 
L 326.772389 97.833273 
L 328.079569 92.256016 
L 331.268895 101.70421 
L 335.355286 101.236408 
L 340.137406 102.476887 
L 343.34358 87.374782 
L 347.212857 82.928471 
L 350.974772 80.728007 
L 353.104718 88.202406 
L 357.50925 86.150403 
L 363.020073 86.699956 
L 365.190504 87.303994 
L 366.960242 89.949443 
L 369.173881 94.912429 
L 370.892664 98.998891 
L 372.529135 102.361598 
L 374.88266 103.744939 
L 378.692806 104.363466 
L 381.082977 104.195846 
L 385.139544 104.783177 
L 388.944462 108.384682 
L 392.837479 113.846471 
L 400.136717 115.094707 
L 405.630003 116.864775 
L 410.2447 117.75257 
L 416.589349 126.521091 
L 419.683673 119.556536 
L 423.610802 113.755301 
L 426.504365 101.085903 
L 428.681747 89.880068 
L 431.288772 87.793761 
L 432.785611 81.516497 
L 435.143957 68.732141 
L 436.453812 63.202167 
L 439.62219 63.948466 
L 441.858459 59.10988 
L 445.389112 57.540527 
L 448.59628 62.019544 
L 451.809634 68.684851 
L 454.985128 67.818963 
L 457.347265 58.295657 
L 459.392086 52.226284 
L 461.933515 50.40751 
L 463.975497 48.729078 
L 467.765546 46.492979 
L 469.954695 44.193385 
L 471.330093 45.443616 
" clip-path="url(#pc5da3dedc4)" style="fill: none; stroke: #1f4e79; stroke-width: 1.5; stroke-linecap: square"/>
   </g>
   <g id="patch_8">
    <path d="M 285.138187 130.78 
L 285.138187 37.084 
" style="fill: none; stroke: #000000; stroke-width: 0.8; stroke-linejoin: miter; stroke-linecap: square"/>
   </g>
   <g id="patch_9">
    <path d="M 480.196374 130.78 
L 480.196374 37.084 
" style="fill: none; stroke: #000000; stroke-width: 0.8; stroke-linejoin: miter; stroke-linecap: square"/>
   </g>
   <g id="patch_10">
    <path d="M 285.138187 130.78 
L 480.196374 130.78 
" style="fill: none; stroke: #000000; stroke-width: 0.8; stroke-linejoin: miter; stroke-linecap: square"/>
   </g>
   <g id="patch_11">
    <path d="M 285.138187 37.084 
L 480.196374 37.084 
" style="fill: none; stroke: #000000; stroke-width: 0.8; stroke-linejoin: miter; stroke-linecap: square"/>
   </g>
   <g id="text_27">
    <!-- Composite rep. -->
    <g transform="translate(344.61025 19.886187) scale(0.1 -0.1)">
     <defs>
      <path id="DejaVuSans-43" d="M 4122 4306 
L 4122 3641 
Q 3803 3938 3442 4084 
Q 3081 4231 2675 4231 
Q 1875 4231 1450 3742 
Q 1025 3253 1025 2328 
Q 1025 1406 1450 917 
Q 1875 428 2675 428 
Q 3081 428 3442 575 
Q 3803 722 4122 1019 
L 4122 359 
Q 3791 134 3420 21 
Q 3050 -91 2638 -91 
Q 1578 -91 968 557 
Q 359 1206 359 2328 
Q 359 3453 968 4101 
Q 1578 4750 2638 4750 
Q 3056 4750 3426 4639 
Q 3797 4528 4122 4306 
z
" transform="scale(0.015625)"/>
      <path id="DejaVuSans-6d" d="M 3328 2828 
Q 3544 3216 3844 3400 
Q 4144 3584 4550 3584 
Q 5097 3584 5394 3201 
Q 5691 2819 5691 2113 
L 5691 0 
L 5113 0 
L 5113 2094 
Q 5113 2597 4934 2840 
Q 4756 3084 4391 3084 
Q 3944 3084 3684 2787 
Q 3425 2491 3425 1978 
L 3425 0 
L 2847 0 
L 2847 2094 
Q 2847 2600 2669 2842 
Q 2491 3084 2119 3084 
Q 1678 3084 1418 2786 
Q 1159 2488 1159 1978 
L 1159 0 
L 581 0 
L 581 3500 
L 1159 3500 
L 1159 2956 
Q 1356 3278 1631 3431 
Q 1906 3584 2284 3584 
Q 2666 3584 2933 3390 
Q 3200 3197 3328 2828 
z
" transform="scale(0.015625)"/>
      <path id="DejaVuSans-74" d="M 1172 4494 
L 1172 3500 
L 2356 3500 
L 2356 3053 
L 1172 3053 
L 1172 1153 
Q 1172 725 1289 603 
Q 1406 481 1766 481 
L 2356 481 
L 2356 0 
L 1766 0 
Q 1100 0 847 248 
Q 594 497 594 1153 
L 594 3053 
L 172 3053 
L 172 3500 
L 594 3500 
L 594 4494 
L 1172 4494 
z
" transform="scale(0.015625)"/>
     </defs>
     <use xlink:href="#DejaVuSans-43"/>
     <use xlink:href="#DejaVuSans-6f" transform="translate(69.824219 0)"/>
     <use xlink:href="#DejaVuSans-6d" transform="translate(131.005859 0)"/>
     <use xlink:href="#DejaVuSans-70" transform="translate(228.417969 0)"/>
     <use xlink:href="#DejaVuSans-6f" transform="translate(291.894531 0)"/>
     <use xlink:href="#DejaVuSans-73" transform="translate(353.076172 0)"/>
     <use xlink:href="#DejaVuSans-69" transform="translate(405.175781 0)"/>
     <use xlink:href="#DejaVuSans-74" transform="translate(432.958984 0)"/>
     <use xlink:href="#DejaVuSans-65" transform="translate(472.167969 0)"/>
     <use xlink:href="#DejaVuSans-20" transform="translate(533.691406 0)"/>
     <use xlink:href="#DejaVuSans-72" transform="translate(565.478516 0)"/>
     <use xlink:href="#DejaVuSans-65" transform="translate(604.341797 0)"/>
     <use xlink:href="#DejaVuSans-70" transform="translate(665.865234 0)"/>
     <use xlink:href="#DejaVuSans-2e" transform="translate(729.341797 0)"/>
    </g>
    <!-- Threshold in K/L -->
    <g transform="translate(342.543843 31.084) scale(0.1 -0.1)">
     <use xlink:href="#DejaVuSans-54"/>
     <use xlink:href="#DejaVuSans-68" transform="translate(61.083984 0)"/>
     <use xlink:href="#DejaVuSans-72" transform="translate(124.462891 0)"/>
     <use xlink:href="#DejaVuSans-65" transform="translate(163.326172 0)"/>
     <use xlink:href="#DejaVuSans-73" transform="translate(224.849609 0)"/>
     <use xlink:href="#DejaVuSans-68" transform="translate(276.949219 0)"/>
     <use xlink:href="#DejaVuSans-6f" transform="translate(340.328125 0)"/>
     <use xlink:href="#DejaVuSans-6c" transform="translate(401.509766 0)"/>
     <use xlink:href="#DejaVuSans-64" transform="translate(429.292969 0)"/>
     <use xlink:href="#DejaVuSans-20" transform="translate(492.769531 0)"/>
     <use xlink:href="#DejaVuSans-69" transform="translate(524.556641 0)"/>
     <use xlink:href="#DejaVuSans-6e" transform="translate(552.339844 0)"/>
     <use xlink:href="#DejaVuSans-20" transform="translate(615.71875 0)"/>
     <use xlink:href="#DejaVuSans-4b" transform="translate(647.505859 0)"/>
     <use xlink:href="#DejaVuSans-2f" transform="translate(713.082031 0)"/>
     <use xlink:href="#DejaVuSans-4c" transform="translate(746.773438 0)"/>
    </g>
   </g>
  </g>
  <g id="axes_3">
   <g id="patch_12">
    <path d="M 43.29 296.78 
L 238.348187 296.78 
L 238.348187 203.084 
L 43.29 203.084 
z
" style="fill: #ffffff"/>
   </g>
   <g id="matplotlib.axis_5">
    <g id="xtick_13">
     <g id="line2d_24">
      <g>
       <use xlink:href="#mbab8b58d4b" x="47.275198" y="296.78" style="stroke: #000000; stroke-width: 0.8"/>
      </g>
     </g>
     <g id="text_28">
      <!-- −0.25 -->
      <g transform="translate(33.484807 310.618594) scale(0.09 -0.09)">
       <defs>
        <path id="DejaVuSans-2212" d="M 678 2272 
L 4684 2272 
L 4684 1741 
L 678 1741 
L 678 2272 
z
" transform="scale(0.015625)"/>
        <path id="DejaVuSans-35" d="M 691 4666 
L 3169 4666 
L 3169 4134 
L 1269 4134 
L 1269 2991 
Q 1406 3038 1543 3061 
Q 1681 3084 1819 3084 
Q 2600 3084 3056 2656 
Q 3513 2228 3513 1497 
Q 3513 744 3044 326 
Q 2575 -91 1722 -91 
Q 1428 -91 1123 -41 
Q 819 9 494 109 
L 494 744 
Q 775 591 1075 516 
Q 1375 441 1709 441 
Q 2250 441 2565 725 
Q 2881 1009 2881 1497 
Q 2881 1984 2565 2268 
Q 2250 2553 1709 2553 
Q 1456 2553 1204 2497 
Q 953 2441 691 2322 
L 691 4666 
z
" transform="scale(0.015625)"/>
       </defs>
       <use xlink:href="#DejaVuSans-2212"/>
       <use xlink:href="#DejaVuSans-30" transform="translate(83.789062 0)"/>
       <use xlink:href="#DejaVuSans-2e" transform="translate(147.412109 0)"/>
       <use xlink:href="#DejaVuSans-32" transform="translate(179.199219 0)"/>
       <use xlink:href="#DejaVuSans-35" transform="translate(242.822266 0)"/>
      </g>
     </g>
    </g>
    <g id="xtick_14">
     <g id="line2d_25">
      <g>
       <use xlink:href="#mbab8b58d4b" x="77.86938" y="296.78" style="stroke: #000000; stroke-width: 0.8"/>
      </g>
     </g>
     <g id="text_29">
      <!-- 0.00 -->
      <g transform="translate(67.849848 310.618594) scale(0.09 -0.09)">
       <use xlink:href="#DejaVuSans-30"/>
       <use xlink:href="#DejaVuSans-2e" transform="translate(63.623047 0)"/>
       <use xlink:href="#DejaVuSans-30" transform="translate(95.410156 0)"/>
       <use xlink:href="#DejaVuSans-30" transform="translate(159.033203 0)"/>
      </g>
     </g>
    </g>
    <g id="xtick_15">
     <g id="line2d_26">
      <g>
       <use xlink:href="#mbab8b58d4b" x="108.463561" y="296.78" style="stroke: #000000; stroke-width: 0.8"/>
      </g>
     </g>
     <g id="text_30">
      <!-- 0.25 -->
      <g transform="translate(98.44403 310.618594) scale(0.09 -0.09)">
       <use xlink:href="#DejaVuSans-30"/>
       <use xlink:href="#DejaVuSans-2e" transform="translate(63.623047 0)"/>
       <use xlink:href="#DejaVuSans-32" transform="translate(95.410156 0)"/>
       <use xlink:href="#DejaVuSans-35" transform="translate(159.033203 0)"/>
      </g>
     </g>
    </g>
    <g id="xtick_16">
     <g id="line2d_27">
      <g>
       <use xlink:href="#mbab8b58d4b" x="139.057743" y="296.78" style="stroke: #000000; stroke-width: 0.8"/>
      </g>
     </g>
     <g id="text_31">
      <!-- 0.50 -->
      <g transform="translate(129.038212 310.618594) scale(0.09 -0.09)">
       <use xlink:href="#DejaVuSans-30"/>
       <use xlink:href="#DejaVuSans-2e" transform="translate(63.623047 0)"/>
       <use xlink:href="#DejaVuSans-35" transform="translate(95.410156 0)"/>
       <use xlink:href="#DejaVuSans-30" transform="translate(159.033203 0)"/>
      </g>
     </g>
    </g>
    <g id="xtick_17">
     <g id="line2d_28">
      <g>
       <use xlink:href="#mbab8b58d4b" x="169.651924" y="296.78" style="stroke: #000000; stroke-width: 0.8"/>
      </g>
     </g>
     <g id="text_32">
      <!-- 0.75 -->
      <g transform="translate(159.632393 310.618594) scale(0.09 -0.09)">
       <defs>
        <path id="DejaVuSans-37" d="M 525 4666 
L 3525 4666 
L 3525 4397 
L 1831 0 
L 1172 0 
L 2766 4134 
L 525 4134 
L 525 4666 
z
" transform="scale(0.015625)"/>
       </defs>
       <use xlink:href="#DejaVuSans-30"/>
       <use xlink:href="#DejaVuSans-2e" transform="translate(63.623047 0)"/>
       <use xlink:href="#DejaVuSans-37" transform="translate(95.410156 0)"/>
       <use xlink:href="#DejaVuSans-35" transform="translate(159.033203 0)"/>
      </g>
     </g>
    </g>
    <g id="xtick_18">
     <g id="line2d_29">
      <g>
       <use xlink:href="#mbab8b58d4b" x="200.246106" y="296.78" style="stroke: #000000; stroke-width: 0.8"/>
      </g>
     </g>
     <g id="text_33">
      <!-- 1.00 -->
      <g transform="translate(190.226575 310.618594) scale(0.09 -0.09)">
       <use xlink:href="#DejaVuSans-31"/>
       <use xlink:href="#DejaVuSans-2e" transform="translate(63.623047 0)"/>
       <use xlink:href="#DejaVuSans-30" transform="translate(95.410156 0)"/>
       <use xlink:href="#DejaVuSans-30" transform="translate(159.033203 0)"/>
      </g>
     </g>
    </g>
    <g id="xtick_19">
     <g id="line2d_30">
      <g>
       <use xlink:href="#mbab8b58d4b" x="230.840288" y="296.78" style="stroke: #000000; stroke-width: 0.8"/>
      </g>
     </g>
     <g id="text_34">
      <!-- 1.25 -->
      <g transform="translate(220.820756 310.618594) scale(0.09 -0.09)">
       <use xlink:href="#DejaVuSans-31"/>
       <use xlink:href="#DejaVuSans-2e" transform="translate(63.623047 0)"/>
       <use xlink:href="#DejaVuSans-32" transform="translate(95.410156 0)"/>
       <use xlink:href="#DejaVuSans-35" transform="translate(159.033203 0)"/>
      </g>
     </g>
    </g>
    <g id="text_35">
     <!-- Threshold -->
     <g transform="translate(118.64464 323.328906) scale(0.09 -0.09)">
      <use xlink:href="#DejaVuSans-54"/>
      <use xlink:href="#DejaVuSans-68" transform="translate(61.083984 0)"/>
      <use xlink:href="#DejaVuSans-72" transform="translate(124.462891 0)"/>
      <use xlink:href="#DejaVuSans-65" transform="translate(163.326172 0)"/>
      <use xlink:href="#DejaVuSans-73" transform="translate(224.849609 0)"/>
      <use xlink:href="#DejaVuSans-68" transform="translate(276.949219 0)"/>
      <use xlink:href="#DejaVuSans-6f" transform="translate(340.328125 0)"/>
      <use xlink:href="#DejaVuSans-6c" transform="translate(401.509766 0)"/>
      <use xlink:href="#DejaVuSans-64" transform="translate(429.292969 0)"/>
     </g>
    </g>
   </g>
   <g id="matplotlib.axis_6">
    <g id="ytick_10">
     <g id="line2d_31">
      <g>
       <use xlink:href="#m837bffd6a3" x="43.29" y="292.521091" style="stroke: #000000; stroke-width: 0.8"/>
      </g>
     </g>
     <g id="text_36">
      <!-- 0 -->
      <g transform="translate(30.56375 295.940388) scale(0.09 -0.09)">
       <use xlink:href="#DejaVuSans-30"/>
      </g>
     </g>
    </g>
    <g id="ytick_11">
     <g id="line2d_32">
      <g>
       <use xlink:href="#m837bffd6a3" x="43.29" y="267.553644" style="stroke: #000000; stroke-width: 0.8"/>
      </g>
     </g>
     <g id="text_37">
      <!-- 5 -->
      <g transform="translate(30.56375 270.972941) scale(0.09 -0.09)">
       <use xlink:href="#DejaVuSans-35"/>
      </g>
     </g>
    </g>
    <g id="ytick_12">
     <g id="line2d_33">
      <g>
       <use xlink:href="#m837bffd6a3" x="43.29" y="242.586197" style="stroke: #000000; stroke-width: 0.8"/>
      </g>
     </g>
     <g id="text_38">
      <!-- 10 -->
      <g transform="translate(24.8375 246.005494) scale(0.09 -0.09)">
       <use xlink:href="#DejaVuSans-31"/>
       <use xlink:href="#DejaVuSans-30" transform="translate(63.623047 0)"/>
      </g>
     </g>
    </g>
    <g id="ytick_13">
     <g id="line2d_34">
      <g>
       <use xlink:href="#m837bffd6a3" x="43.29" y="217.61875" style="stroke: #000000; stroke-width: 0.8"/>
      </g>
     </g>
     <g id="text_39">
      <!-- 15 -->
      <g transform="translate(24.8375 221.038047) scale(0.09 -0.09)">
       <use xlink:href="#DejaVuSans-31"/>
       <use xlink:href="#DejaVuSans-35" transform="translate(63.623047 0)"/>
      </g>
     </g>
    </g>
    <g id="text_40">
     <!-- LR -->
     <g transform="translate(18.965781 255.566141) rotate(-90) scale(0.09 -0.09)">
      <use xlink:href="#DejaVuSans-4c"/>
      <use xlink:href="#DejaVuSans-52" transform="translate(55.712891 0)"/>
     </g>
    </g>
   </g>
   <g id="line2d_35">
    <path d="M 52.156281 232.170997 
L 52.612898 231.028564 
L 53.761165 208.613688 
L 57.447723 208.391663 
L 63.131239 208.310008 
L 65.111336 207.37421 
L 66.422551 208.929495 
L 69.306742 207.342909 
L 76.40061 209.937215 
L 80.605765 213.747081 
L 84.669502 232.135726 
L 89.412907 235.807083 
L 93.91525 232.252551 
L 97.045647 228.958284 
L 98.903284 234.300052 
L 101.225911 227.063934 
L 102.467102 236.450164 
L 104.740405 256.322509 
L 108.117712 255.871759 
L 111.484441 254.266865 
L 115.640147 254.950132 
L 122.50515 241.398313 
L 124.353038 214.206887 
L 124.617289 218.980742 
L 127.037693 221.246803 
L 129.198275 219.628574 
L 131.228785 221.921481 
L 134.844665 223.585377 
L 137.047722 218.172021 
L 137.833976 223.006579 
L 138.028119 223.006579 
L 139.853731 210.537509 
L 141.100466 209.894871 
L 144.00392 208.963864 
L 147.079537 211.582209 
L 152.782728 212.891375 
L 153.129034 212.150933 
L 155.930175 209.518798 
L 161.685946 210.465266 
L 164.185856 215.902209 
L 167.91878 214.291766 
L 170.341009 221.606056 
L 174.690734 221.624607 
L 175.576617 231.207497 
L 177.694173 231.432466 
L 183.126916 233.485977 
L 197.457853 247.078376 
L 200.888826 269.711713 
L 210.911673 279.995287 
L 214.844115 279.684461 
L 218.285016 280.242303 
L 220.803861 275.946199 
L 223.946952 276.722145 
L 224.730578 281.172132 
L 229.481906 292.521091 
" clip-path="url(#p5a6ec46d73)" style="fill: none; stroke: #1f4e79; stroke-width: 1.5; stroke-linecap: square"/>
   </g>
   <g id="patch_13">
    <path d="M 43.29 296.78 
L 43.29 203.084 
" style="fill: none; stroke: #000000; stroke-width: 0.8; stroke-linejoin: miter; stroke-linecap: square"/>
   </g>
   <g id="patch_14">
    <path d="M 238.348187 296.78 
L 238.348187 203.084 
" style="fill: none; stroke: #000000; stroke-width: 0.8; stroke-linejoin: miter; stroke-linecap: square"/>
   </g>
   <g id="patch_15">
    <path d="M 43.29 296.78 
L 238.348187 296.78 
" style="fill: none; stroke: #000000; stroke-width: 0.8; stroke-linejoin: miter; stroke-linecap: square"/>
   </g>
   <g id="patch_16">
    <path d="M 43.29 203.084 
L 238.348187 203.084 
" style="fill: none; stroke: #000000; stroke-width: 0.8; stroke-linejoin: miter; stroke-linecap: square"/>
   </g>
   <g id="text_41">
    <!-- Physical rep. -->
    <g transform="translate(109.108156 185.886187) scale(0.1 -0.1)">
     <use xlink:href="#DejaVuSans-50"/>
     <use xlink:href="#DejaVuSans-68" transform="translate(60.302734 0)"/>
     <use xlink:href="#DejaVuSans-79" transform="translate(123.681641 0)"/>
     <use xlink:href="#DejaVuSans-73" transform="translate(182.861328 0)"/>
     <use xlink:href="#DejaVuSans-69" transform="translate(234.960938 0)"/>
     <use xlink:href="#DejaVuSans-63" transform="translate(262.744141 0)"/>
     <use xlink:href="#DejaVuSans-61" transform="translate(317.724609 0)"/>
     <use xlink:href="#DejaVuSans-6c" transform="translate(379.003906 0)"/>
     <use xlink:href="#DejaVuSans-20" transform="translate(406.787109 0)"/>
     <use xlink:href="#DejaVuSans-72" transform="translate(438.574219 0)"/>
     <use xlink:href="#DejaVuSans-65" transform="translate(477.4375 0)"/>
     <use xlink:href="#DejaVuSans-70" transform="translate(538.960938 0)"/>
     <use xlink:href="#DejaVuSans-2e" transform="translate(602.4375 0)"/>
    </g>
    <!-- Threshold in threat -->
    <g transform="translate(93.272219 197.084) scale(0.1 -0.1)">
     <use xlink:href="#DejaVuSans-54"/>
     <use xlink:href="#DejaVuSans-68" transform="translate(61.083984 0)"/>
     <use xlink:href="#DejaVuSans-72" transform="translate(124.462891 0)"/>
     <use xlink:href="#DejaVuSans-65" transform="translate(163.326172 0)"/>
     <use xlink:href="#DejaVuSans-73" transform="translate(224.849609 0)"/>
     <use xlink:href="#DejaVuSans-68" transform="translate(276.949219 0)"/>
     <use xlink:href="#DejaVuSans-6f" transform="translate(340.328125 0)"/>
     <use xlink:href="#DejaVuSans-6c" transform="translate(401.509766 0)"/>
     <use xlink:href="#DejaVuSans-64" transform="translate(429.292969 0)"/>
     <use xlink:href="#DejaVuSans-20" transform="translate(492.769531 0)"/>
     <use xlink:href="#DejaVuSans-69" transform="translate(524.556641 0)"/>
     <use xlink:href="#DejaVuSans-6e" transform="translate(552.339844 0)"/>
     <use xlink:href="#DejaVuSans-20" transform="translate(615.71875 0)"/>
     <use xlink:href="#DejaVuSans-74" transform="translate(647.505859 0)"/>
     <use xlink:href="#DejaVuSans-68" transform="translate(686.714844 0)"/>
     <use xlink:href="#DejaVuSans-72" transform="translate(750.09375 0)"/>
     <use xlink:href="#DejaVuSans-65" transform="translate(788.957031 0)"/>
     <use xlink:href="#DejaVuSans-61" transform="translate(850.480469 0)"/>
     <use xlink:href="#DejaVuSans-74" transform="translate(911.759766 0)"/>
    </g>
   </g>
  </g>
  <g id="axes_4">
   <g id="patch_17">
    <path d="M 285.138187 296.78 
L 480.196374 296.78 
L 480.196374 203.084 
L 285.138187 203.084 
z
" style="fill: #ffffff"/>
   </g>
   <g id="matplotlib.axis_7">
    <g id="xtick_20">
     <g id="line2d_36">
      <g>
       <use xlink:href="#mbab8b58d4b" x="308.940035" y="296.78" style="stroke: #000000; stroke-width: 0.8"/>
      </g>
     </g>
     <g id="text_42">
      <!-- 10.8 -->
      <g transform="translate(298.920504 310.618594) scale(0.09 -0.09)">
       <use xlink:href="#DejaVuSans-31"/>
       <use xlink:href="#DejaVuSans-30" transform="translate(63.623047 0)"/>
       <use xlink:href="#DejaVuSans-2e" transform="translate(127.246094 0)"/>
       <use xlink:href="#DejaVuSans-38" transform="translate(159.033203 0)"/>
      </g>
     </g>
    </g>
    <g id="xtick_21">
     <g id="line2d_37">
      <g>
       <use xlink:href="#mbab8b58d4b" x="337.379051" y="296.78" style="stroke: #000000; stroke-width: 0.8"/>
      </g>
     </g>
     <g id="text_43">
      <!-- 11.0 -->
      <g transform="translate(327.35952 310.618594) scale(0.09 -0.09)">
       <use xlink:href="#DejaVuSans-31"/>
       <use xlink:href="#DejaVuSans-31" transform="translate(63.623047 0)"/>
       <use xlink:href="#DejaVuSans-2e" transform="translate(127.246094 0)"/>
       <use xlink:href="#DejaVuSans-30" transform="translate(159.033203 0)"/>
      </g>
     </g>
    </g>
    <g id="xtick_22">
     <g id="line2d_38">
      <g>
       <use xlink:href="#mbab8b58d4b" x="365.818068" y="296.78" style="stroke: #000000; stroke-width: 0.8"/>
      </g>
     </g>
     <g id="text_44">
      <!-- 11.2 -->
      <g transform="translate(355.798537 310.618594) scale(0.09 -0.09)">
       <use xlink:href="#DejaVuSans-31"/>
       <use xlink:href="#DejaVuSans-31" transform="translate(63.623047 0)"/>
       <use xlink:href="#DejaVuSans-2e" transform="translate(127.246094 0)"/>
       <use xlink:href="#DejaVuSans-32" transform="translate(159.033203 0)"/>
      </g>
     </g>
    </g>
    <g id="xtick_23">
     <g id="line2d_39">
      <g>
       <use xlink:href="#mbab8b58d4b" x="394.257084" y="296.78" style="stroke: #000000; stroke-width: 0.8"/>
      </g>
     </g>
     <g id="text_45">
      <!-- 11.4 -->
      <g transform="translate(384.237553 310.618594) scale(0.09 -0.09)">
       <use xlink:href="#DejaVuSans-31"/>
       <use xlink:href="#DejaVuSans-31" transform="translate(63.623047 0)"/>
       <use xlink:href="#DejaVuSans-2e" transform="translate(127.246094 0)"/>
       <use xlink:href="#DejaVuSans-34" transform="translate(159.033203 0)"/>
      </g>
     </g>
    </g>
    <g id="xtick_24">
     <g id="line2d_40">
      <g>
       <use xlink:href="#mbab8b58d4b" x="422.696101" y="296.78" style="stroke: #000000; stroke-width: 0.8"/>
      </g>
     </g>
     <g id="text_46">
      <!-- 11.6 -->
      <g transform="translate(412.67657 310.618594) scale(0.09 -0.09)">
       <use xlink:href="#DejaVuSans-31"/>
       <use xlink:href="#DejaVuSans-31" transform="translate(63.623047 0)"/>
       <use xlink:href="#DejaVuSans-2e" transform="translate(127.246094 0)"/>
       <use xlink:href="#DejaVuSans-36" transform="translate(159.033203 0)"/>
      </g>
     </g>
    </g>
    <g id="xtick_25">
     <g id="line2d_41">
      <g>
       <use xlink:href="#mbab8b58d4b" x="451.135117" y="296.78" style="stroke: #000000; stroke-width: 0.8"/>
      </g>
     </g>
     <g id="text_47">
      <!-- 11.8 -->
      <g transform="translate(441.115586 310.618594) scale(0.09 -0.09)">
       <use xlink:href="#DejaVuSans-31"/>
       <use xlink:href="#DejaVuSans-31" transform="translate(63.623047 0)"/>
       <use xlink:href="#DejaVuSans-2e" transform="translate(127.246094 0)"/>
       <use xlink:href="#DejaVuSans-38" transform="translate(159.033203 0)"/>
      </g>
     </g>
    </g>
    <g id="xtick_26">
     <g id="line2d_42">
      <g>
       <use xlink:href="#mbab8b58d4b" x="479.574134" y="296.78" style="stroke: #000000; stroke-width: 0.8"/>
      </g>
     </g>
     <g id="text_48">
      <!-- 12.0 -->
      <g transform="translate(469.554603 310.618594) scale(0.09 -0.09)">
       <use xlink:href="#DejaVuSans-31"/>
       <use xlink:href="#DejaVuSans-32" transform="translate(63.623047 0)"/>
       <use xlink:href="#DejaVuSans-2e" transform="translate(127.246094 0)"/>
       <use xlink:href="#DejaVuSans-30" transform="translate(159.033203 0)"/>
      </g>
     </g>
    </g>
    <g id="text_49">
     <!-- Threshold -->
     <g transform="translate(360.492828 323.328906) scale(0.09 -0.09)">
      <use xlink:href="#DejaVuSans-54"/>
      <use xlink:href="#DejaVuSans-68" transform="translate(61.083984 0)"/>
      <use xlink:href="#DejaVuSans-72" transform="translate(124.462891 0)"/>
      <use xlink:href="#DejaVuSans-65" transform="translate(163.326172 0)"/>
      <use xlink:href="#DejaVuSans-73" transform="translate(224.849609 0)"/>
      <use xlink:href="#DejaVuSans-68" transform="translate(276.949219 0)"/>
      <use xlink:href="#DejaVuSans-6f" transform="translate(340.328125 0)"/>
      <use xlink:href="#DejaVuSans-6c" transform="translate(401.509766 0)"/>
      <use xlink:href="#DejaVuSans-64" transform="translate(429.292969 0)"/>
     </g>
    </g>
   </g>
   <g id="matplotlib.axis_8">
    <g id="ytick_14">
     <g id="line2d_43">
      <g>
       <use xlink:href="#m837bffd6a3" x="285.138187" y="292.521091" style="stroke: #000000; stroke-width: 0.8"/>
      </g>
     </g>
     <g id="text_50">
      <!-- 0 -->
      <g transform="translate(272.411937 295.940388) scale(0.09 -0.09)">
       <use xlink:href="#DejaVuSans-30"/>
      </g>
     </g>
    </g>
    <g id="ytick_15">
     <g id="line2d_44">
      <g>
       <use xlink:href="#m837bffd6a3" x="285.138187" y="263.744709" style="stroke: #000000; stroke-width: 0.8"/>
      </g>
     </g>
     <g id="text_51">
      <!-- 10 -->
      <g transform="translate(266.685687 267.164006) scale(0.09 -0.09)">
       <use xlink:href="#DejaVuSans-31"/>
       <use xlink:href="#DejaVuSans-30" transform="translate(63.623047 0)"/>
      </g>
     </g>
    </g>
    <g id="ytick_16">
     <g id="line2d_45">
      <g>
       <use xlink:href="#m837bffd6a3" x="285.138187" y="234.968327" style="stroke: #000000; stroke-width: 0.8"/>
      </g>
     </g>
     <g id="text_52">
      <!-- 20 -->
      <g transform="translate(266.685687 238.387624) scale(0.09 -0.09)">
       <use xlink:href="#DejaVuSans-32"/>
       <use xlink:href="#DejaVuSans-30" transform="translate(63.623047 0)"/>
      </g>
     </g>
    </g>
    <g id="ytick_17">
     <g id="line2d_46">
      <g>
       <use xlink:href="#m837bffd6a3" x="285.138187" y="206.191945" style="stroke: #000000; stroke-width: 0.8"/>
      </g>
     </g>
     <g id="text_53">
      <!-- 30 -->
      <g transform="translate(266.685687 209.611241) scale(0.09 -0.09)">
       <use xlink:href="#DejaVuSans-33"/>
       <use xlink:href="#DejaVuSans-30" transform="translate(63.623047 0)"/>
      </g>
     </g>
    </g>
    <g id="text_54">
     <!-- LR -->
     <g transform="translate(260.813968 255.566141) rotate(-90) scale(0.09 -0.09)">
      <use xlink:href="#DejaVuSans-4c"/>
      <use xlink:href="#DejaVuSans-52" transform="translate(55.712891 0)"/>
     </g>
    </g>
   </g>
   <g id="line2d_47">
    <path d="M 294.004468 261.30852 
L 296.386544 274.051971 
L 300.675473 292.521091 
L 302.426592 290.034511 
L 303.741208 253.095123 
L 305.955471 258.294225 
L 308.519566 237.928199 
L 312.443681 257.432009 
L 313.902651 269.449013 
L 316.567335 252.346534 
L 320.319312 251.9587 
L 323.377197 249.273369 
L 324.589525 246.986027 
L 328.54353 236.818177 
L 332.335722 235.872108 
L 336.082446 241.220861 
L 338.530331 241.112195 
L 341.448641 242.622761 
L 344.784349 236.952551 
L 347.526931 229.452565 
L 349.532909 222.946217 
L 353.875071 229.654693 
L 360.246996 242.390837 
L 361.847674 241.212662 
L 363.87693 242.660251 
L 366.839578 241.702151 
L 368.498093 241.143967 
L 369.996162 241.629053 
L 372.827411 242.063905 
L 376.100625 242.733746 
L 380.77048 242.31566 
L 386.266011 240.487534 
L 390.63638 239.151221 
L 396.679399 231.499518 
L 402.979848 225.808299 
L 410.662052 219.737673 
L 415.764035 215.208824 
L 420.112008 212.63919 
L 422.067067 210.966249 
L 424.973366 208.956528 
L 426.948955 208.572405 
L 428.420881 208.983468 
L 431.25821 212.500053 
L 432.432736 219.737933 
L 434.850994 222.827392 
L 436.965684 229.099865 
L 439.273699 222.37936 
L 442.241941 217.069245 
L 445.166694 215.488856 
L 447.171118 213.448951 
L 449.60821 212.808381 
L 453.991823 208.301542 
L 456.144131 207.342909 
L 459.825012 208.672992 
L 462.663902 208.229222 
L 465.006908 208.789249 
L 466.790578 208.812424 
L 468.151224 208.972117 
L 469.169602 209.162298 
L 471.330093 209.259875 
" clip-path="url(#p3f74fbc299)" style="fill: none; stroke: #1f4e79; stroke-width: 1.5; stroke-linecap: square"/>
   </g>
   <g id="patch_18">
    <path d="M 285.138187 296.78 
L 285.138187 203.084 
" style="fill: none; stroke: #000000; stroke-width: 0.8; stroke-linejoin: miter; stroke-linecap: square"/>
   </g>
   <g id="patch_19">
    <path d="M 480.196374 296.78 
L 480.196374 203.084 
" style="fill: none; stroke: #000000; stroke-width: 0.8; stroke-linejoin: miter; stroke-linecap: square"/>
   </g>
   <g id="patch_20">
    <path d="M 285.138187 296.78 
L 480.196374 296.78 
" style="fill: none; stroke: #000000; stroke-width: 0.8; stroke-linejoin: miter; stroke-linecap: square"/>
   </g>
   <g id="patch_21">
    <path d="M 285.138187 203.084 
L 480.196374 203.084 
" style="fill: none; stroke: #000000; stroke-width: 0.8; stroke-linejoin: miter; stroke-linecap: square"/>
   </g>
   <g id="text_55">
    <!-- Robots -->
    <g transform="translate(365.56025 185.886187) scale(0.1 -0.1)">
     <defs>
      <path id="DejaVuSans-62" d="M 3116 1747 
Q 3116 2381 2855 2742 
Q 2594 3103 2138 3103 
Q 1681 3103 1420 2742 
Q 1159 2381 1159 1747 
Q 1159 1113 1420 752 
Q 1681 391 2138 391 
Q 2594 391 2855 752 
Q 3116 1113 3116 1747 
z
M 1159 2969 
Q 1341 3281 1617 3432 
Q 1894 3584 2278 3584 
Q 2916 3584 3314 3078 
Q 3713 2572 3713 1747 
Q 3713 922 3314 415 
Q 2916 -91 2278 -91 
Q 1894 -91 1617 61 
Q 1341 213 1159 525 
L 1159 0 
L 581 0 
L 581 4863 
L 1159 4863 
L 1159 2969 
z
" transform="scale(0.015625)"/>
     </defs>
     <use xlink:href="#DejaVuSans-52"/>
     <use xlink:href="#DejaVuSans-6f" transform="translate(64.982422 0)"/>
     <use xlink:href="#DejaVuSans-62" transform="translate(126.164062 0)"/>
     <use xlink:href="#DejaVuSans-6f" transform="translate(189.640625 0)"/>
     <use xlink:href="#DejaVuSans-74" transform="translate(250.822266 0)"/>
     <use xlink:href="#DejaVuSans-73" transform="translate(290.03125 0)"/>
    </g>
    <!-- Threshold in K/L -->
    <g transform="translate(342.543843 197.084) scale(0.1 -0.1)">
     <use xlink:href="#DejaVuSans-54"/>
     <use xlink:href="#DejaVuSans-68" transform="translate(61.083984 0)"/>
     <use xlink:href="#DejaVuSans-72" transform="translate(124.462891 0)"/>
     <use xlink:href="#DejaVuSans-65" transform="translate(163.326172 0)"/>
     <use xlink:href="#DejaVuSans-73" transform="translate(224.849609 0)"/>
     <use xlink:href="#DejaVuSans-68" transform="translate(276.949219 0)"/>
     <use xlink:href="#DejaVuSans-6f" transform="translate(340.328125 0)"/>
     <use xlink:href="#DejaVuSans-6c" transform="translate(401.509766 0)"/>
     <use xlink:href="#DejaVuSans-64" transform="translate(429.292969 0)"/>
     <use xlink:href="#DejaVuSans-20" transform="translate(492.769531 0)"/>
     <use xlink:href="#DejaVuSans-69" transform="translate(524.556641 0)"/>
     <use xlink:href="#DejaVuSans-6e" transform="translate(552.339844 0)"/>
     <use xlink:href="#DejaVuSans-20" transform="translate(615.71875 0)"/>
     <use xlink:href="#DejaVuSans-4b" transform="translate(647.505859 0)"/>
     <use xlink:href="#DejaVuSans-2f" transform="translate(713.082031 0)"/>
     <use xlink:href="#DejaVuSans-4c" transform="translate(746.773438 0)"/>
    </g>
   </g>
  </g>
  <g id="axes_5">
   <g id="patch_22">
    <path d="M 43.29 462.78 
L 238.348187 462.78 
L 238.348187 369.084 
L 43.29 369.084 
z
" style="fill: #ffffff"/>
   </g>
   <g id="matplotlib.axis_9">
    <g id="xtick_27">
     <g id="line2d_48">
      <g>
       <use xlink:href="#mbab8b58d4b" x="70.801342" y="462.78" style="stroke: #000000; stroke-width: 0.8"/>
      </g>
     </g>
     <g id="text_56">
      <!-- 10.8 -->
      <g transform="translate(60.781811 476.618594) scale(0.09 -0.09)">
       <use xlink:href="#DejaVuSans-31"/>
       <use xlink:href="#DejaVuSans-30" transform="translate(63.623047 0)"/>
       <use xlink:href="#DejaVuSans-2e" transform="translate(127.246094 0)"/>
       <use xlink:href="#DejaVuSans-38" transform="translate(159.033203 0)"/>
      </g>
     </g>
    </g>
    <g id="xtick_28">
     <g id="line2d_49">
      <g>
       <use xlink:href="#mbab8b58d4b" x="99.112937" y="462.78" style="stroke: #000000; stroke-width: 0.8"/>
      </g>
     </g>
     <g id="text_57">
      <!-- 11.0 -->
      <g transform="translate(89.093406 476.618594) scale(0.09 -0.09)">
       <use xlink:href="#DejaVuSans-31"/>
       <use xlink:href="#DejaVuSans-31" transform="translate(63.623047 0)"/>
       <use xlink:href="#DejaVuSans-2e" transform="translate(127.246094 0)"/>
       <use xlink:href="#DejaVuSans-30" transform="translate(159.033203 0)"/>
      </g>
     </g>
    </g>
    <g id="xtick_29">
     <g id="line2d_50">
      <g>
       <use xlink:href="#mbab8b58d4b" x="127.424532" y="462.78" style="stroke: #000000; stroke-width: 0.8"/>
      </g>
     </g>
     <g id="text_58">
      <!-- 11.2 -->
      <g transform="translate(117.405001 476.618594) scale(0.09 -0.09)">
       <use xlink:href="#DejaVuSans-31"/>
       <use xlink:href="#DejaVuSans-31" transform="translate(63.623047 0)"/>
       <use xlink:href="#DejaVuSans-2e" transform="translate(127.246094 0)"/>
       <use xlink:href="#DejaVuSans-32" transform="translate(159.033203 0)"/>
      </g>
     </g>
    </g>
    <g id="xtick_30">
     <g id="line2d_51">
      <g>
       <use xlink:href="#mbab8b58d4b" x="155.736128" y="462.78" style="stroke: #000000; stroke-width: 0.8"/>
      </g>
     </g>
     <g id="text_59">
      <!-- 11.4 -->
      <g transform="translate(145.716596 476.618594) scale(0.09 -0.09)">
       <use xlink:href="#DejaVuSans-31"/>
       <use xlink:href="#DejaVuSans-31" transform="translate(63.623047 0)"/>
       <use xlink:href="#DejaVuSans-2e" transform="translate(127.246094 0)"/>
       <use xlink:href="#DejaVuSans-34" transform="translate(159.033203 0)"/>
      </g>
     </g>
    </g>
    <g id="xtick_31">
     <g id="line2d_52">
      <g>
       <use xlink:href="#mbab8b58d4b" x="184.047723" y="462.78" style="stroke: #000000; stroke-width: 0.8"/>
      </g>
     </g>
     <g id="text_60">
      <!-- 11.6 -->
      <g transform="translate(174.028192 476.618594) scale(0.09 -0.09)">
       <use xlink:href="#DejaVuSans-31"/>
       <use xlink:href="#DejaVuSans-31" transform="translate(63.623047 0)"/>
       <use xlink:href="#DejaVuSans-2e" transform="translate(127.246094 0)"/>
       <use xlink:href="#DejaVuSans-36" transform="translate(159.033203 0)"/>
      </g>
     </g>
    </g>
    <g id="xtick_32">
     <g id="line2d_53">
      <g>
       <use xlink:href="#mbab8b58d4b" x="212.359318" y="462.78" style="stroke: #000000; stroke-width: 0.8"/>
      </g>
     </g>
     <g id="text_61">
      <!-- 11.8 -->
      <g transform="translate(202.339787 476.618594) scale(0.09 -0.09)">
       <use xlink:href="#DejaVuSans-31"/>
       <use xlink:href="#DejaVuSans-31" transform="translate(63.623047 0)"/>
       <use xlink:href="#DejaVuSans-2e" transform="translate(127.246094 0)"/>
       <use xlink:href="#DejaVuSans-38" transform="translate(159.033203 0)"/>
      </g>
     </g>
    </g>
    <g id="text_62">
     <!-- Threshold -->
     <g transform="translate(118.64464 489.328906) scale(0.09 -0.09)">
      <use xlink:href="#DejaVuSans-54"/>
      <use xlink:href="#DejaVuSans-68" transform="translate(61.083984 0)"/>
      <use xlink:href="#DejaVuSans-72" transform="translate(124.462891 0)"/>
      <use xlink:href="#DejaVuSans-65" transform="translate(163.326172 0)"/>
      <use xlink:href="#DejaVuSans-73" transform="translate(224.849609 0)"/>
      <use xlink:href="#DejaVuSans-68" transform="translate(276.949219 0)"/>
      <use xlink:href="#DejaVuSans-6f" transform="translate(340.328125 0)"/>
      <use xlink:href="#DejaVuSans-6c" transform="translate(401.509766 0)"/>
      <use xlink:href="#DejaVuSans-64" transform="translate(429.292969 0)"/>
     </g>
    </g>
   </g>
   <g id="matplotlib.axis_10">
    <g id="ytick_18">
     <g id="line2d_54">
      <g>
       <use xlink:href="#m837bffd6a3" x="43.29" y="458.521091" style="stroke: #000000; stroke-width: 0.8"/>
      </g>
     </g>
     <g id="text_63">
      <!-- 0 -->
      <g transform="translate(30.56375 461.940388) scale(0.09 -0.09)">
       <use xlink:href="#DejaVuSans-30"/>
      </g>
     </g>
    </g>
    <g id="ytick_19">
     <g id="line2d_55">
      <g>
       <use xlink:href="#m837bffd6a3" x="43.29" y="429.469146" style="stroke: #000000; stroke-width: 0.8"/>
      </g>
     </g>
     <g id="text_64">
      <!-- 20 -->
      <g transform="translate(24.8375 432.888443) scale(0.09 -0.09)">
       <use xlink:href="#DejaVuSans-32"/>
       <use xlink:href="#DejaVuSans-30" transform="translate(63.623047 0)"/>
      </g>
     </g>
    </g>
    <g id="ytick_20">
     <g id="line2d_56">
      <g>
       <use xlink:href="#m837bffd6a3" x="43.29" y="400.417201" style="stroke: #000000; stroke-width: 0.8"/>
      </g>
     </g>
     <g id="text_65">
      <!-- 40 -->
      <g transform="translate(24.8375 403.836498) scale(0.09 -0.09)">
       <use xlink:href="#DejaVuSans-34"/>
       <use xlink:href="#DejaVuSans-30" transform="translate(63.623047 0)"/>
      </g>
     </g>
    </g>
    <g id="ytick_21">
     <g id="line2d_57">
      <g>
       <use xlink:href="#m837bffd6a3" x="43.29" y="371.365256" style="stroke: #000000; stroke-width: 0.8"/>
      </g>
     </g>
     <g id="text_66">
      <!-- 60 -->
      <g transform="translate(24.8375 374.784553) scale(0.09 -0.09)">
       <use xlink:href="#DejaVuSans-36"/>
       <use xlink:href="#DejaVuSans-30" transform="translate(63.623047 0)"/>
      </g>
     </g>
    </g>
    <g id="text_67">
     <!-- LR -->
     <g transform="translate(18.965781 421.566141) rotate(-90) scale(0.09 -0.09)">
      <use xlink:href="#DejaVuSans-4c"/>
      <use xlink:href="#DejaVuSans-52" transform="translate(55.712891 0)"/>
     </g>
    </g>
   </g>
   <g id="line2d_58">
    <path d="M 52.156281 373.342992 
L 54.091048 375.300481 
L 57.621008 378.619888 
L 59.829119 380.437987 
L 62.642458 383.629988 
L 64.662732 399.972684 
L 66.722868 406.070656 
L 70.338534 404.835148 
L 72.1803 403.265386 
L 75.583216 400.883226 
L 77.228695 397.684443 
L 80.394971 396.798481 
L 84.32504 399.39114 
L 85.816885 395.076195 
L 88.938489 397.076855 
L 93.371323 400.596157 
L 98.074267 399.76958 
L 100.810495 402.629964 
L 105.095635 406.329764 
L 108.059556 422.142481 
L 110.939001 421.874007 
L 114.215436 430.391121 
L 119.639999 430.806026 
L 122.693401 429.16583 
L 124.537742 429.084147 
L 126.237043 426.414525 
L 128.249134 425.051173 
L 130.059124 425.243587 
L 131.882059 424.911862 
L 134.851795 425.319654 
L 137.814457 425.302096 
L 141.354894 424.719167 
L 145.249838 424.207384 
L 149.493659 422.43831 
L 153.724473 420.747754 
L 161.812515 418.138383 
L 165.720431 434.816698 
L 169.715781 438.332446 
L 176.357136 450.507956 
L 179.248189 458.521091 
L 182.229537 444.74578 
L 184.918572 446.521262 
L 187.892841 440.134643 
L 189.684386 434.336813 
L 191.576569 433.440905 
L 193.430518 435.543853 
L 194.950746 435.74265 
L 197.924079 425.172488 
L 200.050411 417.141446 
L 203.751123 408.511733 
L 206.612749 402.87945 
L 209.790909 402.54883 
L 212.931898 397.515922 
L 215.244334 378.496301 
L 217.493409 373.342909 
L 220.930192 373.498439 
L 223.622217 373.570428 
L 226.296286 373.453579 
L 228.036762 375.781335 
L 229.481906 376.575005 
" clip-path="url(#p59d80bd1fc)" style="fill: none; stroke: #1f4e79; stroke-width: 1.5; stroke-linecap: square"/>
   </g>
   <g id="patch_23">
    <path d="M 43.29 462.78 
L 43.29 369.084 
" style="fill: none; stroke: #000000; stroke-width: 0.8; stroke-linejoin: miter; stroke-linecap: square"/>
   </g>
   <g id="patch_24">
    <path d="M 238.348187 462.78 
L 238.348187 369.084 
" style="fill: none; stroke: #000000; stroke-width: 0.8; stroke-linejoin: miter; stroke-linecap: square"/>
   </g>
   <g id="patch_25">
    <path d="M 43.29 462.78 
L 238.348187 462.78 
" style="fill: none; stroke: #000000; stroke-width: 0.8; stroke-linejoin: miter; stroke-linecap: square"/>
   </g>
   <g id="patch_26">
    <path d="M 43.29 369.084 
L 238.348187 369.084 
" style="fill: none; stroke: #000000; stroke-width: 0.8; stroke-linejoin: miter; stroke-linecap: square"/>
   </g>
   <g id="text_68">
    <!-- Redistribution -->
    <g transform="translate(106.000344 351.886188) scale(0.1 -0.1)">
     <defs>
      <path id="DejaVuSans-75" d="M 544 1381 
L 544 3500 
L 1119 3500 
L 1119 1403 
Q 1119 906 1312 657 
Q 1506 409 1894 409 
Q 2359 409 2629 706 
Q 2900 1003 2900 1516 
L 2900 3500 
L 3475 3500 
L 3475 0 
L 2900 0 
L 2900 538 
Q 2691 219 2414 64 
Q 2138 -91 1772 -91 
Q 1169 -91 856 284 
Q 544 659 544 1381 
z
M 1991 3584 
L 1991 3584 
z
" transform="scale(0.015625)"/>
     </defs>
     <use xlink:href="#DejaVuSans-52"/>
     <use xlink:href="#DejaVuSans-65" transform="translate(64.982422 0)"/>
     <use xlink:href="#DejaVuSans-64" transform="translate(126.505859 0)"/>
     <use xlink:href="#DejaVuSans-69" transform="translate(189.982422 0)"/>
     <use xlink:href="#DejaVuSans-73" transform="translate(217.765625 0)"/>
     <use xlink:href="#DejaVuSans-74" transform="translate(269.865234 0)"/>
     <use xlink:href="#DejaVuSans-72" transform="translate(309.074219 0)"/>
     <use xlink:href="#DejaVuSans-69" transform="translate(350.1875 0)"/>
     <use xlink:href="#DejaVuSans-62" transform="translate(377.970703 0)"/>
     <use xlink:href="#DejaVuSans-75" transform="translate(441.447266 0)"/>
     <use xlink:href="#DejaVuSans-74" transform="translate(504.826172 0)"/>
     <use xlink:href="#DejaVuSans-69" transform="translate(544.035156 0)"/>
     <use xlink:href="#DejaVuSans-6f" transform="translate(571.818359 0)"/>
     <use xlink:href="#DejaVuSans-6e" transform="translate(633 0)"/>
    </g>
    <!-- Threshold in K/L -->
    <g transform="translate(100.695656 363.084) scale(0.1 -0.1)">
     <use xlink:href="#DejaVuSans-54"/>
     <use xlink:href="#DejaVuSans-68" transform="translate(61.083984 0)"/>
     <use xlink:href="#DejaVuSans-72" transform="translate(124.462891 0)"/>
     <use xlink:href="#DejaVuSans-65" transform="translate(163.326172 0)"/>
     <use xlink:href="#DejaVuSans-73" transform="translate(224.849609 0)"/>
     <use xlink:href="#DejaVuSans-68" transform="translate(276.949219 0)"/>
     <use xlink:href="#DejaVuSans-6f" transform="translate(340.328125 0)"/>
     <use xlink:href="#DejaVuSans-6c" transform="translate(401.509766 0)"/>
     <use xlink:href="#DejaVuSans-64" transform="translate(429.292969 0)"/>
     <use xlink:href="#DejaVuSans-20" transform="translate(492.769531 0)"/>
     <use xlink:href="#DejaVuSans-69" transform="translate(524.556641 0)"/>
     <use xlink:href="#DejaVuSans-6e" transform="translate(552.339844 0)"/>
     <use xlink:href="#DejaVuSans-20" transform="translate(615.71875 0)"/>
     <use xlink:href="#DejaVuSans-4b" transform="translate(647.505859 0)"/>
     <use xlink:href="#DejaVuSans-2f" transform="translate(713.082031 0)"/>
     <use xlink:href="#DejaVuSans-4c" transform="translate(746.773438 0)"/>
    </g>
   </g>
  </g>
 </g>
 <defs>
  <clipPath id="p6ac99358ca">
   <rect x="43.29" y="37.084" width="195.058187" height="93.696"/>
  </clipPath>
  <clipPath id="pc5da3dedc4">
   <rect x="285.138187" y="37.084" width="195.058187" height="93.696"/>
  </clipPath>
  <clipPath id="p5a6ec46d73">
   <rect x="43.29" y="203.084" width="195.058187" height="93.696"/>
  </clipPath>
  <clipPath id="p3f74fbc299">
   <rect x="285.138187" y="203.084" width="195.058187" height="93.696"/>
  </clipPath>
  <clipPath id="p59d80bd1fc">
   <rect x="43.29" y="369.084" width="195.058187" height="93.696"/>
  </clipPath>
 </defs>
</svg>
